<?xml version="1.0" encoding="UTF-8" standalone="no"?>


<svg
   version="1.1"
   id="layer"
   x="0px"
   y="0px"
   viewBox="0 0 600.09998 121.9"
   xml:space="preserve"
   width="600.09998"
   height="121.9"
   xmlns="http://www.w3.org/2000/svg"
   xmlns:svg="http://www.w3.org/2000/svg"><defs
   id="defs156" />
<style
   type="text/css"
   id="style133">
	.st0{fill:#00703A;}
	.st1{fill:#FFFFFF;}
	.st2{fill:#E3000F;}
</style>
<g
   id="g151"
   transform="translate(-20.6,-258.7)">
	<g
   id="g141">
		<g
   id="g139">
			<path
   class="st0"
   d="m 495.6,321.2 c 0,22.5 11.3,42.7 31.3,52.5 18.7,9.2 43.7,9.2 62.5,0 18.6,-9.1 31.3,-30 31.3,-52.5 0,-34.4 -27.6,-62.5 -62.6,-62.5 -35.1,0 -62.5,27.9 -62.5,62.5"
   id="path135" />
			<path
   class="st1"
   d="m 558.1,275 c -6.3,21.4 -25,52.6 -38.7,67.9 h 32.4 l 0.1,9.3 c -0.1,5.2 -4.3,10.8 -10.4,10.6 -8.4,-0.1 -19.1,-4 -25.5,-14.9 -4.7,-7.9 -8,-14.2 -8,-26.7 0,-27.3 22,-50.1 50,-50.1 27.7,0 50,23.3 50,50.1 0,12.5 -5.8,23.3 -7.8,26.4 -6.9,11.1 -17.2,15 -25.3,15.1 -5.5,0.1 -10.7,-4 -10.7,-10.7 v -9.3 h 33 c -14,-15.2 -32.8,-46.4 -39.1,-67.7"
   id="path137" />
		</g>
	</g>
	<path
   class="st2"
   d="m 290.6,282.4 c 5.3,0 8.6,2 13.5,8.2 l 36.7,52.5 c 2,2.8 1.7,7.1 -1.6,10 -2.9,2.5 -8.2,2.8 -11.1,-1.1 l -8.7,-12.2 h -57.8 l -8.8,12.4 c -3.1,3.7 -6.9,3.7 -10.3,1.4 -3.6,-2.4 -4.5,-7 -2.3,-10.2 l 37,-52.8 c 4.6,-6.6 8.3,-8.2 13.4,-8.2 m 2.1,19.4 c -0.9,-1.4 -1.3,-1.6 -2.3,-1.6 -1.1,0 -1.6,0.6 -2.4,1.6 -1.2,1.7 -15.9,23.3 -16.2,23.3 h 37.1 c 0,0.1 -14.1,-20.3 -16.2,-23.3"
   id="path143" />
	<path
   class="st2"
   d="M 40.3,282.6 H 93 c 13.1,0 14.3,15 14.3,15 H 42.4 c -3.3,0 -6.2,2.4 -6.2,6.7 0,4.8 3.7,7 6,7 h 45.9 c 9.1,0 22,7.6 22,20.6 0,17 -15,23 -20.2,23 H 36.2 C 20.3,355 21.1,339.8 21.1,339.8 h 66.5 c 2.7,0 6.6,-2.6 6.6,-6.6 0,-3.8 -3.4,-6.7 -6,-6.7 h -45 c -12.7,0.1 -22.6,-9.4 -22.6,-22.2 0,-14.4 12.5,-21.7 19.7,-21.7"
   id="path145" />
	<path
   class="st2"
   d="m 379.1,282.3 h 54.6 c 8.2,0 21.1,6.7 21.1,22.9 v 1.1 c 0,8.6 -5.4,16.2 -13,19.8 0,0 0.6,0.9 12.2,16.7 1.5,2 1.6,7 -1.6,10 -3.2,2.9 -8.5,3.2 -11.2,0.2 -3.7,-4.3 -8,-10 -19.8,-25 H 400 c -6,0 -14.4,-4.9 -14.4,-15.5 h 46 c 2.5,-0.1 6.5,-2.5 6.5,-7.3 0,-4.3 -3.8,-7.3 -6.5,-7.3 h -50.9 l 0.1,48.3 c 0,5.2 -4.1,8.8 -8.4,8.8 -4.1,0 -8.2,-3.7 -8.2,-8.6 v -49.1 c 0.1,-8.3 8.9,-15 14.9,-15"
   id="path147" />
	<path
   class="st2"
   d="m 154.1,282.4 h 54.6 c 8.2,0 21.1,6.8 21.1,23 v 1.1 c 0,8.6 -5.5,16.1 -12.9,19.8 0,0 -3.9,1.2 -7.7,1.7 H 175 c -6,0 -13.9,-4.9 -13.9,-15.6 h 45.6 c 2.4,-0.2 6.6,-2.3 6.6,-7 0,-4.4 -3.8,-7.3 -6.5,-7.3 h -50.9 l 0.1,48.2 c 0,5.3 -4.1,8.9 -8.4,8.9 -4.2,0 -8.2,-3.7 -8.2,-8.6 v -49.1 c 0,-8.4 8.7,-15.1 14.7,-15.1"
   id="path149" />
</g>
</svg>
